<svg xmlns="http://www.w3.org/2000/svg" xmlns:xlink="http://www.w3.org/1999/xlink" width="793" height="461" viewBox="0 0 793 461">
  <defs>
    <clipPath id="clip-Artboard_1">
      <rect width="793" height="461"/>
    </clipPath>
  </defs>
  <g id="Artboard_1" data-name="Artboard – 1" clip-path="url(#clip-Artboard_1)">
    <rect width="793" height="461" fill="#fff"/>
    <g id="Ellipse_1" data-name="Ellipse 1" transform="translate(66 216)" fill="#fff" stroke="#707070" stroke-width="1">
      <circle cx="40.5" cy="40.5" r="40.5" stroke="none"/>
      <circle cx="40.5" cy="40.5" r="40" fill="none"/>
    </g>
    <g id="Ellipse_2" data-name="Ellipse 2" transform="translate(314 216)" fill="#fff" stroke="#707070" stroke-width="1">
      <circle cx="40.5" cy="40.5" r="40.5" stroke="none"/>
      <circle cx="40.5" cy="40.5" r="40" fill="none"/>
    </g>
    <g id="Ellipse_3" data-name="Ellipse 3" transform="translate(562 216)" fill="#fff" stroke="#707070" stroke-width="1">
      <circle cx="40.5" cy="40.5" r="40.5" stroke="none"/>
      <circle cx="40.5" cy="40.5" r="40" fill="none"/>
    </g>
    <line id="Line_1" data-name="Line 1" x2="117" transform="translate(162.5 256.5)" fill="none" stroke="#707070" stroke-width="1"/>
    <line id="Line_2" data-name="Line 2" x2="130" transform="translate(408.5 242.5)" fill="none" stroke="#707070" stroke-width="1"/>
    <line id="Line_3" data-name="Line 3" x2="130" transform="translate(408.5 273.5)" fill="none" stroke="#707070" stroke-width="1"/>
    <line id="Line_4" data-name="Line 4" y1="90" transform="translate(90.5 111.5)" fill="none" stroke="#707070" stroke-width="1"/>
    <line id="Line_5" data-name="Line 5" y2="82" transform="translate(116.5 111.5)" fill="none" stroke="#707070" stroke-width="1"/>
    <line id="Line_6" data-name="Line 6" x2="26" transform="translate(90.5 111.5)" fill="none" stroke="#707070" stroke-width="1"/>
    <text id="_0" data-name="0" transform="translate(98 102)" fill="#707070" font-size="20" font-family="HelveticaNeue, Helvetica Neue"><tspan x="0" y="0">0</tspan></text>
    <text id="_1_" data-name="1
" transform="translate(216 238)" fill="#707070" font-size="20" font-family="HelveticaNeue, Helvetica Neue"><tspan x="0" y="0">1</tspan><tspan x="0" y="24"></tspan></text>
    <g id="Polygon_1" data-name="Polygon 1" transform="translate(290.5 250.5) rotate(90)" fill="#fff">
      <path d="M 12.12378215789795 10.5 L 0.8762181997299194 10.5 L 6.5 0.9828307628631592 L 12.12378215789795 10.5 Z" stroke="none"/>
      <path d="M 6.5 1.965688705444336 L 1.75245189666748 10 L 11.24754810333252 10 L 6.5 1.965688705444336 M 6.5 0 L 13 11 L 0 11 L 6.5 0 Z" stroke="none" fill="#707070"/>
    </g>
    <g id="Polygon_2" data-name="Polygon 2" transform="translate(549.5 236.5) rotate(90)" fill="#fff">
      <path d="M 12.12378215789795 10.5 L 0.8762181997299194 10.5 L 6.5 0.9828307628631592 L 12.12378215789795 10.5 Z" stroke="none"/>
      <path d="M 6.5 1.965688705444336 L 1.75245189666748 10 L 11.24754810333252 10 L 6.5 1.965688705444336 M 6.5 0 L 13 11 L 0 11 L 6.5 0 Z" stroke="none" fill="#707070"/>
    </g>
    <g id="Polygon_3" data-name="Polygon 3" transform="translate(397.5 280.5) rotate(-90)" fill="#fff">
      <path d="M 12.12378215789795 10.5 L 0.8762181997299194 10.5 L 6.5 0.9828307628631592 L 12.12378215789795 10.5 Z" stroke="none"/>
      <path d="M 6.5 1.965688705444336 L 1.75245189666748 10 L 11.24754810333252 10 L 6.5 1.965688705444336 M 6.5 0 L 13 11 L 0 11 L 6.5 0 Z" stroke="none" fill="#707070"/>
    </g>
    <text id="_0-2" data-name="0" transform="translate(468 232)" fill="#707070" font-size="20" font-family="HelveticaNeue, Helvetica Neue"><tspan x="0" y="0">0</tspan></text>
    <text id="_1" data-name="1" transform="translate(468 299)" fill="#707070" font-size="20" font-family="HelveticaNeue, Helvetica Neue"><tspan x="0" y="0">1</tspan></text>
    <line id="Line_7" data-name="Line 7" y1="90" transform="translate(90.5 111.5)" fill="none" stroke="#707070" stroke-width="1"/>
    <line id="Line_8" data-name="Line 8" x2="26" transform="translate(90.5 111.5)" fill="none" stroke="#707070" stroke-width="1"/>
    <text id="_1-2" data-name="1" transform="translate(346 102)" fill="#707070" font-size="20" font-family="HelveticaNeue, Helvetica Neue"><tspan x="0" y="0">1</tspan></text>
    <g id="Ellipse_4" data-name="Ellipse 4" transform="translate(321 223)" fill="#fff" stroke="#707070" stroke-width="1">
      <circle cx="33.5" cy="33.5" r="33.5" stroke="none"/>
      <circle cx="33.5" cy="33.5" r="33" fill="none"/>
    </g>
    <text id="q1" transform="translate(98 263)" fill="#707070" font-size="20" font-family="HelveticaNeue, Helvetica Neue"><tspan x="0" y="0">q1</tspan></text>
    <text id="q2" transform="translate(343 263)" fill="#707070" font-size="20" font-family="HelveticaNeue, Helvetica Neue"><tspan x="0" y="0">q2</tspan></text>
    <text id="q3" transform="translate(591 263)" fill="#707070" font-size="20" font-family="HelveticaNeue, Helvetica Neue"><tspan x="0" y="0">q3</tspan></text>
    <g id="Polygon_4" data-name="Polygon 4" transform="translate(123 202) rotate(180)" fill="#fff">
      <path d="M 11.11690044403076 9.5 L 0.8830999732017517 9.5 L 6 0.971833348274231 L 11.11690044403076 9.5 Z" stroke="none"/>
      <path d="M 6 1.943650245666504 L 1.766189575195312 9 L 10.23381042480469 9 L 6 1.943650245666504 M 6 0 L 12 10 L 0 10 L 6 0 Z" stroke="none" fill="#707070"/>
    </g>
    <line id="Line_9" data-name="Line 9" y1="90" transform="translate(338.5 111.5)" fill="none" stroke="#707070" stroke-width="1"/>
    <line id="Line_10" data-name="Line 10" y2="82" transform="translate(364.5 111.5)" fill="none" stroke="#707070" stroke-width="1"/>
    <line id="Line_11" data-name="Line 11" y1="90" transform="translate(338.5 111.5)" fill="none" stroke="#707070" stroke-width="1"/>
    <g id="Polygon_5" data-name="Polygon 5" transform="translate(371 202) rotate(180)" fill="#fff">
      <path d="M 11.11690044403076 9.5 L 0.8830999732017517 9.5 L 6 0.971833348274231 L 11.11690044403076 9.5 Z" stroke="none"/>
      <path d="M 6 1.943650245666504 L 1.766189575195312 9 L 10.23381042480469 9 L 6 1.943650245666504 M 6 0 L 12 10 L 0 10 L 6 0 Z" stroke="none" fill="#707070"/>
    </g>
    <line id="Line_12" data-name="Line 12" x2="26" transform="translate(338.5 111.5)" fill="none" stroke="#707070" stroke-width="1"/>
  </g>
</svg>
